<svg xmlns="http://www.w3.org/2000/svg" width="61.721" height="33.666" viewBox="0 0 61.721 33.666"><path d="M62.721,11.611a5.628,5.628,0,0,1-5.611,5.611,4.768,4.768,0,0,1-1.431-.2l-9.988,9.96a4.956,4.956,0,0,1,.2,1.459,5.611,5.611,0,0,1-11.222,0,4.956,4.956,0,0,1,.2-1.459l-7.154-7.154a5.517,5.517,0,0,1-2.918,0L12.026,32.624a4.768,4.768,0,0,1,.2,1.431,5.611,5.611,0,1,1-5.611-5.611,4.768,4.768,0,0,1,1.431.2L20.835,15.875a4.956,4.956,0,0,1-.2-1.459,5.611,5.611,0,1,1,11.222,0,4.956,4.956,0,0,1-.2,1.459l7.154,7.154a5.517,5.517,0,0,1,2.918,0l9.96-9.988a4.768,4.768,0,0,1-.2-1.431,5.611,5.611,0,0,1,11.222,0Z" transform="translate(-1 -6)" fill="#13505b"/></svg>